<svg width="62" height="62" viewBox="0 0 62 62" fill="none" xmlns="http://www.w3.org/2000/svg">
<circle cx="31" cy="31" r="29" fill="#86371C"/>
<path d="M25.62 33.04C25.62 34.1333 25.2867 35.06 24.62 35.82C23.9533 36.58 23.0667 37.0467 21.96 37.22V38.52H20.62V37.26C19.8467 37.22 19.1533 37.0667 18.54 36.8C17.9267 36.52 17.4067 36.1867 16.98 35.8L17.12 33.12H17.32C17.8 33.72 18.3067 34.2133 18.84 34.6C19.3733 34.9867 19.9667 35.2133 20.62 35.28V30.44L20.56 30.42C18.2667 29.3933 17.12 28.0333 17.12 26.34C17.12 25.3533 17.4533 24.54 18.12 23.9C18.7867 23.26 19.62 22.88 20.62 22.76V21.48H21.96V22.76C23.0267 22.8667 23.9 23.2133 24.58 23.8L24.68 26.26H24.42C23.6733 25.4067 22.8533 24.88 21.96 24.68V28.76L22.12 28.84C23.2667 29.3467 24.1333 29.9333 24.72 30.6C25.32 31.2533 25.62 32.0667 25.62 33.04ZM19.2 26.26C19.2 26.62 19.3133 26.9467 19.54 27.24C19.78 27.5333 20.14 27.82 20.62 28.1V24.66C20.18 24.7533 19.8333 24.94 19.58 25.22C19.3267 25.4867 19.2 25.8333 19.2 26.26ZM21.96 35.16C22.3867 35.0133 22.7133 34.7733 22.94 34.44C23.18 34.0933 23.3 33.68 23.3 33.2C23.3 32.7467 23.1867 32.36 22.96 32.04C22.7333 31.72 22.4 31.42 21.96 31.14V35.16ZM27.9497 24.12L29.5897 23H30.2697V37H27.9497V24.12ZM38.6106 37.28C37.384 37.28 36.3106 36.9667 35.3906 36.34C34.4706 35.7133 33.764 34.8533 33.2706 33.76C32.7773 32.6533 32.5306 31.4 32.5306 30C32.5306 28.6 32.7773 27.3533 33.2706 26.26C33.764 25.1533 34.4706 24.2867 35.3906 23.66C36.3106 23.0333 37.384 22.72 38.6106 22.72C39.8373 22.72 40.904 23.0333 41.8106 23.66C42.7306 24.2867 43.4373 25.1533 43.9306 26.26C44.424 27.3533 44.6706 28.6 44.6706 30C44.6706 31.4 44.424 32.6533 43.9306 33.76C43.4373 34.8533 42.7306 35.7133 41.8106 36.34C40.904 36.9667 39.8373 37.28 38.6106 37.28ZM38.6106 35.3C39.7706 35.3 40.684 34.8333 41.3506 33.9C42.0173 32.9533 42.3506 31.6533 42.3506 30C42.3506 28.3467 42.0173 27.0533 41.3506 26.12C40.684 25.1733 39.7706 24.7 38.6106 24.7C37.4506 24.7 36.5306 25.1733 35.8506 26.12C35.184 27.0533 34.8506 28.3467 34.8506 30C34.8506 31.6533 35.184 32.9533 35.8506 33.9C36.5306 34.8333 37.4506 35.3 38.6106 35.3Z" fill="white"/>
<circle cx="31" cy="31" r="30.5" stroke="#270A05" stroke-dasharray="5 5"/>
</svg>
